<svg class="icon" style="width: 1em;height: 1em;vertical-align: middle;fill: currentColor;overflow: hidden;" viewBox="0 0 1024 1024" version="1.1" xmlns="http://www.w3.org/2000/svg" p-id="1744"><path d="M592.867793 471.68782c-14.71167 0-28.753886 6.429212-41.644966 18.01404-16.319994-23.508465-36.742437-38.338514-60.132523-41.126548-71.464264-8.551873-181.226222 93.376652-198.432018 233.202831-17.201714 139.822096 64.671751 264.634534 136.12785 273.17416 29.998908 3.588113 60.038636-13.140085 86.110622-44.024795 20.267326 43.849268 47.714959 70.839712 77.983281 70.839712 62.312332 0 145.859433-114.186889 145.859433-255.041741-0.012246-140.85077-83.559347-255.037659-145.871679-255.037659z" fill="#FF7073" p-id="1745"></path><path d="M592.871875 987.886197c-29.807052 0-57.813924-23.353348-79.485472-66.022905-26.831245 28.921249-56.552574 42.608328-85.335034 39.167168-28.108923-3.359518-57.622069-23.108425-83.093994-55.613705-35.926029-45.845385-70.133519-128.865903-58.381328-224.389708 16.568998-134.641988 118.930219-239.076885 195.937892-239.076885 3.151334 0 6.282259 0.183692 9.298886 0.542912 22.553268 2.690064 43.363505 15.895462 60.495824 38.301776 12.935983-10.115294 26.553666-15.234171 40.559144-15.234172 68.414981 0 151.982492 120.509968 151.986574 261.160719 0 140.65075-83.567511 261.1648-151.982492 261.1648z m-76.46068-88.261856l4.033055 8.731482c20.05506 43.387997 45.77599 67.280174 72.423543 67.280174 61.597975 0 139.736374-117.199434 139.736374-248.918682-0.004082-131.719248-78.150645-248.9146-139.740456-248.9146-12.772701 0-25.410695 5.531163-37.550681 16.446537l-5.167862 4.641278-3.959578-5.702609c-15.785246-22.73696-35.089211-36.064818-55.830053-38.538534a66.696442 66.696442 0 0 0-7.84568-0.457188c-86.241247 0-171.057862 124.906324-183.781579 228.328875-11.295003 91.796903 21.451117 171.425246 55.866792 215.335744 23.451316 29.921349 50.058049 48.041522 74.913587 51.009164 26.818999 3.179909 55.009563-11.458285 80.706002-41.898052l6.196536-7.343589z" fill="#6E6E96" p-id="1746"></path><path d="M385.492026 440.986801s-345.087449 179.246433-105.765641 314.921178c194.198944 110.088521 518.794555 138.397465 480.158051-30.141779-38.640585-168.535162-58.02619-388.777517-374.39241-284.779399z" fill="#FF7073" p-id="1747"></path><path d="M606.130339 851.448111c-0.004082 0 0 0 0 0-103.447043 0-232.753806-35.411692-329.424663-90.213071-58.924239-33.407411-88.392482-72.684794-87.584238-116.746327 1.983871-108.202619 185.72463-204.873477 193.545817-208.939188l0.910295-0.383712c54.785051-18.009958 103.58175-27.14148 145.022614-27.14148 168.898463 0 200.61591 147.186096 228.59829 277.043934 2.865592 13.299284 5.698527 26.463862 8.649842 39.330449 7.298686 31.839908 2.571685 58.56502-14.054462 79.428324-24.814718 31.158207-75.191166 47.621072-145.663495 47.621071z m-218.238074-404.803603c-9.919356 5.261749-184.728612 99.503793-186.524709 198.080963-0.714357 39.220235 26.667964 74.840111 81.379538 105.859528 94.964565 53.833936 221.899663 88.616994 323.379163 88.616994 65.667768 0.004082 113.999115-15.270909 136.095195-43.000203 14.185087-17.801774 18.116091-41.040824 11.695043-69.064025-2.963561-12.911491-5.808742-26.129134-8.68658-39.485568-28.325272-131.449834-57.613904-267.377664-216.625669-267.377664-40.016232 0-87.359726 8.874354-140.711981 26.369975z" fill="#6E6E96" p-id="1748"></path><path d="M760.504906 732.828128c-36.395464 43.963565-125.828865 53.915577-224.993849 38.624257-52.188874-10.560236-43.902334-45.339212-40.730589-54.511555l52.715457-136.813633-77.542421-28.40283-56.393375 146.357441s-20.728596 37.70988-53.756377 22.169556c-22.871667-10.017325-44.837121-21.173538-65.316713-33.36659-51.699029-30.774495-75.701421-63.185888-81.648952-95.001303-44.506476-9.000897-44.588117 109.108832 66.896462 167.963676 160.820107 84.898256 398.260094 125.975819 465.446381 46.57607 25.904622-16.209779 39.959084-89.004788 15.323976-73.595089z" fill="#FFFFFF" p-id="1749"></path><path d="M611.290037 855.093373h-0.028574c-99.77729-0.008164-231.031185-35.268821-334.384342-89.82936-45.869877-24.21874-69.7743-56.115796-81.751003-78.615997-14.13202-26.553666-19.491738-54.850364-14.327959-75.689175 4.56372-18.422244 17.544605-28.243631 33.256375-25.08005l4.045302 0.820489 0.759259 4.057548c6.135305 32.835925 32.635905 63.4104 78.758869 90.866197 19.822383 11.805258 41.57149 22.912487 64.643176 33.019617 4.624951 2.175727 9.06621 3.241139 13.352351 3.241139 18.43449 0 30.778577-19.704004 32.403229-22.447134l58.389492-151.533468 89.041526 32.615495L500.495323 719.136968c-1.494026 4.326962-4.486161 15.985266 1.534847 26.529174 5.465851 9.572382 17.140484 16.230189 34.693253 19.781563 28.329354 4.359618 55.719838 6.596576 81.122369 6.596576 65.924937 0 114.913492-15.315812 137.940277-43.126747l0.628634-0.763341 0.836818-0.522501c3.294206-2.06143 6.310833-3.06153 9.233573-3.06153 2.673736 0 9.188671 0.987854 11.821586 10.152032 5.012744 17.450719-7.710972 62.063327-29.055957 76.354548-24.908605 28.80287-72.590907 44.016631-137.960686 44.016631z m-403.509597-257.564442c-9.658105 0.257168-13.601355 10.339806-15.095382 16.381224-8.221227 33.191063 14.666768 100.805964 89.911 140.532372 101.724422 53.699229 230.733196 88.400646 328.669487 88.408809h0.028574c62.189871 0 106.871874-13.960575 129.216958-40.375452l0.616388-0.730685 0.808244-0.506172c12.356333-7.739547 22.496119-32.178717 24.802471-50.384613 1.08174-8.564119 0.036738-12.686979-0.64088-13.960575a7.319097 7.319097 0 0 0-1.575667 0.673537c-25.974017 30.574475-76.652536 46.727105-146.671759 46.727105-26.023001 0-54.038038-2.285942-83.269522-6.792514-21.447035-4.335126-35.881127-12.984967-43.179813-25.761751-8.511052-14.895362-4.514736-30.701019-2.404321-36.803667L539.544112 583.731638l-66.043316-24.190166-54.576867 141.487569c-0.653126 1.187873-16.307748 29.096777-43.310438 29.096777-6.102649 0.004082-12.299185-1.457288-18.418162-4.335126-23.381922-10.241837-45.584134-21.581742-65.843296-33.644169-47.233278-28.113006-75.325874-59.924339-83.571593-94.617592z" fill="#6E6E96" p-id="1750"></path><path d="M368.322968 940.612099s-55.217747-32.562428-8.470231-59.177326c51.417369-29.292715 194.443866 1.065412 147.320802 71.717351l-138.850571-12.540025z" fill="#FFFFFF" p-id="1751"></path><path d="M510.247315 959.577254L366.400328 946.584122l-1.187874-0.70211c-3.118678-1.836918-30.435686-18.577361-30.272404-40.334632 0.085723-11.315413 7.44564-21.218441 21.879731-29.439668 13.462566-7.670152 33.297196-11.895063 55.846382-11.895063 39.583536 0 89.380335 13.442156 105.169663 42.951219 5.555656 10.384708 9.098866 27.38232-5.567901 49.38043l-2.02061 3.032956z m-139.952722-24.937179l133.699038 12.078755c7.372163-12.421646 8.396755-23.765634 3.045201-33.770713-12.813522-23.949325-57.173044-36.485268-94.368587-36.485268-20.4551 0-38.134412 3.657507-49.784553 10.290821-10.364298 5.898547-15.646457 12.254282-15.695442 18.891679-0.093887 11.919555 15.69136 24.333037 23.104343 28.994726z" fill="#6E6E96" p-id="1752"></path><path d="M508.953309 965.659493c0 34.031963-38.636503 33.852353-86.302478 33.852352-47.653728 0-86.290231 0.183692-86.290231-33.852352 0-34.031963 38.636503-61.622467 86.290231-61.622468 47.665974 0.008164 86.302478 27.594587 86.302478 61.622468z" fill="#9696B5" p-id="1753"></path><path d="M421.132312 1005.634905c-23.316609 0-45.343294 0-61.630631-4.518818-19.418262-5.388292-29.260059-17.320093-29.260058-35.456594 0-37.354743 41.457192-67.745526 92.41329-67.745527 50.964262 0.004082 92.425537 30.394866 92.425537 67.745527 0 39.975412-44.171749 39.975412-90.935592 39.975412h-3.012546z m1.522601-95.470738c-44.204405 0-80.167172 24.896358-80.167172 55.499408 0 12.633912 6.069993 19.704004 20.291818 23.655418 14.679014 4.073875 35.893373 4.073875 58.352753 4.073875h3.008464c50.258069 0 78.689474-1.285842 78.689474-27.729293 0-30.60305-35.966849-55.495326-80.175337-55.499408z" fill="#6E6E96" p-id="1754"></path><path d="M541.58105 939.530358s-54.870774-26.933296-8.478396-54.168663c51.417369-30.190764 194.443866-3.955496 147.324885 66.71277l-138.846489-12.544107z" fill="#FFFFFF" p-id="1755"></path><path d="M683.501314 958.499595l-143.597982-12.976803-1.02051-0.498009c-3.045201-1.494026-29.766231-15.181105-30.517327-35.309641-0.408204-10.992932 6.870072-20.965354 21.634809-29.635606 14.495322-8.511052 36.011752-13.197233 60.589711-13.197233 39.424337 0 85.857535 12.42981 100.716159 40.199924 5.376046 10.049981 8.743728 26.606733-5.78425 48.388495l-2.02061 3.028873z m-140.193562-24.961671l133.939878 12.103247c7.26603-12.225708 8.368181-23.23905 3.26155-32.782858-11.85016-22.140982-54.205402-33.729892-89.919165-33.729892-22.104243 0-41.926627 4.196337-54.385011 11.515433-7.274194 4.269813-15.887297 10.964358-15.597473 18.6141 0.387794 10.396954 15.99343 20.749006 22.700221 24.27997z" fill="#6E6E96" p-id="1756"></path><path d="M682.21139 964.581834c0 34.040127-38.640585 33.860517-86.294313 33.860517s-86.290231 0.183692-86.290232-33.860517c0-34.027881 38.636503-61.618385 86.290232-61.618385s86.294313 27.590504 86.294313 61.618385z" fill="#9696B5" p-id="1757"></path><path d="M594.398558 1004.56541c-23.320691 0-45.343294 0-61.634713-4.522899-19.41418-5.388292-29.260059-17.320093-29.260059-35.460677 0-37.350661 41.45311-67.741444 92.413291-67.741444s92.417373 30.386701 92.417372 67.741444c0 39.983576-44.167667 39.983576-90.927428 39.983576h-3.008463z m1.518519-95.478902c-44.204405 0-80.167172 24.896358-80.167173 55.495326 0 12.637994 6.065911 19.712168 20.291818 23.659501 14.683096 4.077957 35.893373 4.077957 58.356836 4.077957h3.004381c50.253987 0 78.68131-1.285842 78.68131-27.737458 0.004082-30.60305-35.962767-55.495326-80.167172-55.495326z" fill="#6E6E96" p-id="1758"></path><path d="M815.498141 729.864567s19.842794 6.331243 11.311332 19.303965c0.004082 0 20.659202-10.923538-11.311332-19.303965z" fill="#CFC8BB" p-id="1759"></path><path d="M826.809473 751.209551h-3.788133l2.08184-3.159498c1.755277-2.665572 2.220629-5.053565 1.424632-7.306851-1.710375-4.829053-8.984569-8.082438-11.650141-8.931502l1.138889-3.918758c13.780965 3.612605 20.108126 8.241638 19.344785 14.152431-0.66129 5.135206-7.408902 9.164179-8.551872 9.164178z m3.237057-12.642076a10.433693 10.433693 0 0 1 0.930705 4.041219 3.220729 3.220729 0 0 0 0.338809-1.747113c-0.057149-0.510255-0.330645-1.310335-1.269514-2.294106z" fill="#6E6E96" p-id="1760"></path><path d="M663.258481 598.145319c24.916769 30.072384 62.826669 86.935194 88.939475 177.360531 5.188272 17.944645 35.264739 24.255478 49.976409 13.940165 33.770712-23.720731 46.714859-17.944645 43.637001-50.062132 0.906213-6.347571 0.346973-14.9321-1.608323-27.468043a369.436814 369.436814 0 0 0-1.106233-8.413083c-1.008264-7.22521-2.730884-14.687178-4.951514-22.292018-32.733874-139.613912-123.983783-200.444464-154.145973-236.995045-30.66428-37.162887-70.688677-16.413881-92.19286 15.785247 8.478396-2.816607 17.43439-3.224811 26.394467-0.685783" fill="#FF7073" p-id="1761"></path><path d="M784.254212 800.561408a49.433497 49.433497 0 0 1-16.328158-2.812525c-11.090901-3.910594-18.965155-11.397054-21.610317-20.536741-25.357629-87.816914-61.7286-143.720444-87.772012-175.156229a6.127141 6.127141 0 0 1 9.429511-7.813024c26.786343 32.333834 64.161496 89.731391 90.106939 179.568915 1.530765 5.294405 6.600658 9.809141 13.915672 12.388989 9.449921 3.335026 20.422443 2.612505 26.6598-1.767523 9.613203-6.751693 17.548687-11.152132 23.916669-14.695342 15.715852-8.7274 18.981483-10.539826 17.140483-29.766231a5.939367 5.939367 0 0 1 0.032657-1.449124c0.795998-5.567902 0.302071-13.487058-1.596078-25.655618a426.001634 426.001634 0 0 0-1.110315-8.48656c-0.926623-6.600658-2.48188-13.609519-4.767822-21.447035-25.676028-109.476215-86.784158-168.894381-127.22084-208.216667-10.384708-10.098966-19.352949-18.818202-25.769915-26.594487-10.139786-12.291021-21.69604-18.201814-34.440167-17.556852-12.903327 0.653126-26.872066 8.400837-38.542616 20.936781 4.54331 0.012246 9.078456 0.657208 13.576863 1.930804a6.123059 6.123059 0 1 1-3.34319 11.784848c-7.506871-2.126743-15.177023-1.926723-22.794108 0.604142a6.123059 6.123059 0 0 1-7.021108-9.213163c15.303566-22.920651 36.803667-37.2282 57.503689-38.273202 16.605736-0.832736 31.937876 6.768021 44.502394 21.994029 5.988352 7.257866 14.73208 15.760754 24.863702 25.610715 38.938574 37.860916 104.108333 101.234578 130.519129 213.882538 2.371665 8.090602 4.053465 15.670949 5.053564 22.847175 0.432696 3.028873 0.795998 5.841398 1.118479 8.523298 1.987953 12.740045 2.5227 21.589907 1.685883 28.321189 2.294106 25.5005-5.588312 31.019418-23.451317 40.934692-6.118977 3.396257-13.736063 7.62525-22.826764 14.013641-5.735265 4.020809-13.360515 6.098567-21.430707 6.098567z" fill="#6E6E96" p-id="1762"></path><path d="M767.754608 764.77825l-0.06123 0.171446c1.755277-4.767822 18.85494-46.082143 78.68131-29.672345a18.736561 18.736561 0 0 0 23.014538-13.107428 18.740643 18.740643 0 0 0-13.107429-23.014538c-76.215758-20.91637-114.399155 25.769915-123.934799 53.388993a18.716151 18.716151 0 0 0 11.58891 23.810536 18.707987 18.707987 0 0 0 23.8187-11.576664z" fill="#FFFFFF" p-id="1763"></path><path d="M750.067131 783.518893a24.712667 24.712667 0 0 1-8.135504-1.375647c-6.265931-2.159399-11.319495-6.641478-14.225908-12.60942s-3.310534-12.711471-1.142971-18.985565c8.049782-23.304363 36.758765-62.745028 93.319504-62.745028 12.046098 0 24.83921 1.832836 38.024197 5.453605a24.88003 24.88003 0 0 1 17.389488 30.537737 24.908605 24.908605 0 0 1-23.953407 18.279372 24.777979 24.777979 0 0 1-6.580248-0.889884c-8.74781-2.396157-16.989448-3.612605-24.512647-3.612605-34.94634 0-45.694349 26.472026-46.804664 29.492734h-0.004082a24.924933 24.924933 0 0 1-23.373758 16.454701z m69.811039-83.469542c-49.674338 0-74.754388 34.256475-81.74284 54.499309-1.102151 3.183991-0.893967 6.600658 0.57965 9.629531a12.503287 12.503287 0 0 0 7.221127 6.392473c6.494525 2.245122 13.764637-1.363401 16.005677-7.715054l0.865392 0.293907-0.857228-0.314317c1.416468-3.841199 15.054561-37.50986 58.299687-37.509861 8.613103 0 17.948727 1.359319 27.749704 4.049383 6.612904 1.796097 13.69116-2.277778 15.49134-8.825369a12.621666 12.621666 0 0 0-8.825369-15.487257c-12.131821-3.326862-23.835028-5.012744-34.78714-5.012745z" fill="#6E6E96" p-id="1764"></path><path d="M866.891018 747.32345l0.008164 0.004082s-9.253983-33.762548-64.524797-15.266828c-40.983676 13.715652-47.302673 36.726109-47.829256 47.710877-2.412485 8.364099-3.555456 18.287537-4.416767 30.517327-0.093887 1.371565-0.048984 2.792115 0.134707 4.200419-0.195938 0.538829-0.424532 1.073576-0.555157 1.616487 0 0 3.326862 39.934592 32.060338 35.150442 28.74164-4.792314 17.067007-26.010755 31.26434-11.695043 18.467146 18.626346 63.700225-5.620968 67.255681-29.835627a24.541221 24.541221 0 0 0 1.816508-7.54769c1.587913-22.365494-4.490243-41.934791-15.213761-54.854446z" fill="#FF7073" p-id="1765"></path><path d="M777.143299 857.779355c-29.758067 0-33.395165-39.485567-33.533954-41.163286l-0.081641-0.987853 0.232676-0.963362c0.077559-0.314317 0.171446-0.628634 0.273497-0.942951a27.606833 27.606833 0 0 1-0.012246-3.853445c0.742931-10.535744 1.796097-21.573578 4.449423-31.113305 0.767423-11.376644 7.576265-37.640486 51.96028-52.495027 11.613402-3.882019 22.234869-5.853645 31.578657-5.853644 29.280469 0 38.334432 18.577361 40.330549 23.920751 11.686879 14.654522 17.467047 35.815814 15.879134 58.287441a30.452014 30.452014 0 0 1-1.983871 8.743728c-3.833035 22.124654-33.489051 40.930609-55.556557 40.93061-8.92742 0-16.528178-2.910494-21.985864-8.417166-0.489845-0.493927-0.926623-0.922541-1.306253-1.277678-3.032955 4.849463-8.833533 12.078755-24.59837 14.707588a35.64845 35.64845 0 0 1-5.64546 0.477599z m-21.193949-41.01225c0.738849 5.535245 4.80456 28.766132 21.189867 28.766131 1.151135 0 2.371665-0.106133 3.628933-0.314317 12.033852-2.008363 14.940264-6.910893 17.062925-10.494923 1.363401-2.306352 3.653425-6.172044 8.445739-6.172044 3.751394 0 6.800678 2.355337 11.111312 6.698627 3.147252 3.179909 7.621168 4.792314 13.287038 4.792314 18.218142 0.004082 41.420454-16.617982 43.559443-31.203109l0.387793-1.416468c0.791916-1.955297 1.26135-3.857527 1.383812-5.661788 1.404222-19.838712-3.637097-38.252791-13.825868-50.527484l4.10245-3.735067-5.286241 1.445042c-0.183692-0.604142-5.14337-16.299583-28.986562-16.299583-8.021207 0-17.336421 1.755277-27.692556 5.220928-36.815914 12.323677-43.151239 31.72561-43.653329 42.196042l-0.232677 1.408304c-2.004281 6.947631-3.220729 15.421945-4.192254 29.247812-0.069395 0.955197-0.032656 1.959379 0.097969 2.979889l0.191856 1.477698-0.57965 1.591996z" fill="#6E6E96" p-id="1766"></path><path d="M489.335027 423.723856c9.915274 0.028574 18.997811 2.832935 26.933296 7.796696-13.152331-36.391381-48.555859-66.925036-90.466157-39.942756-41.244926 26.54142-152.088625 59.573283-224.704025 183.267242-4.408603 6.621068-8.262048 13.242136-11.315413 19.822383-1.265432 2.730884-2.404321 5.253585-3.465651 7.66607-5.518917 11.384808-8.474314 19.393769-9.319296 25.663782-12.115493 29.656016 2.808443 27.668063 30.954105 59.324279 12.266528 13.797293 44.979992 15.928118 55.315716 0.302071 36.583237-55.327962 74.529876-93.364406 105.671754-118.656722" fill="#FF7073" p-id="1767"></path><path d="M237.681379 704.657974c-13.625848 0-27.059839-5.110713-34.309542-13.258464-7.584429-8.531462-14.2504-14.609619-19.606035-19.495821-15.666867-14.295302-22.271607-21.69604-12.723717-45.510657 1.04092-6.694545 4.077957-14.993331 9.760156-26.72103 0.979689-2.24104 2.134907-4.800478 3.416667-7.568101 3.049283-6.568001 6.898647-13.319695 11.776684-20.646956 58.418066-99.528285 143.116302-142.03048 193.721345-167.420765 13.180905-6.612904 24.561631-12.323677 32.766531-17.601754 17.41398-11.20928 35.542317-14.115692 52.425632-8.404919 20.353049 6.882318 37.962967 26.104642 47.114899 51.417369a6.123059 6.123059 0 0 1-9.009061 7.270112 44.302374 44.302374 0 0 0-23.704403-6.86599 6.123059 6.123059 0 0 1-6.106731-6.139388c0.012246-3.379929 2.820689-6.290423 6.139387-6.106731 5.065811 0.012246 9.984668 0.669454 14.727998 1.951215-8.323278-14.73208-20.087716-25.529075-33.089011-29.925431-13.413582-4.535146-27.504782-2.147153-41.877643 7.098667-8.755975 5.633214-20.410197 11.482777-33.901337 18.250798-52.588914 26.390385-132.070304 66.267828-188.835144 162.971342-4.710673 7.090502-8.262048 13.311531-11.041916 19.299882-1.245022 2.690064-2.367583 5.180108-3.412585 7.555855-5.34339 11.033753-8.12734 18.605936-8.858026 24.01872-0.069395 0.514337-0.204102 1.016428-0.40004 1.498109-7.143569 17.479293-4.620869 19.781563 9.356035 32.533854 5.567902 5.078057 12.495123 11.401136 20.504084 20.406115 5.441359 6.123059 17.005776 9.849961 28.096677 9.049882 8.143669-0.583732 14.536142-3.514636 17.536441-8.053864 31.460278-47.57617 67.431209-87.963868 106.916777-120.03237a6.118977 6.118977 0 1 1 7.719136 9.502988c-38.522206 31.28475-73.652237 70.745825-104.426732 117.281075-5.188272 7.849762-14.736162 12.65024-26.876148 13.515632-1.257268 0.085723-2.530864 0.130625-3.800378 0.130626z" fill="#6E6E96" p-id="1768"></path><path d="M250.249978 673.238516l0.012246 0.175528c-0.473517-5.016826-6.547591-48.866094-72.701122-49.462072-11.029671-0.093887-19.985665-8.462068-20.022403-18.663084-0.04082-10.217345 8.870272-18.41408 19.904024-18.312029 84.261458 0.771505 110.529382 55.434095 112.64796 84.24513 0.751095 10.201017-7.568101 18.920253-18.561033 19.47541-11.005178 0.551075-20.53674-7.261948-21.279672-17.458883z" fill="#FFFFFF" p-id="1769"></path><path d="M270.427499 696.84495c-13.682996 0-25.157609-10.013243-26.25976-22.851256-0.42045-4.437177-5.857727-43.367587-66.659704-43.918663-14.33204-0.122461-26.035247-11.233772-26.092396-24.761651-0.024492-6.282259 2.457388-12.2502 6.988452-16.797592 4.849463-4.869873 11.719535-7.661988 18.838612-7.661988 88.980295 0.812326 116.693261 59.173244 118.954711 89.915082a23.430906 23.430906 0 0 1-5.914875 17.336422c-4.567802 5.171944-11.290921 8.343689-18.442654 8.702908a27.30068 27.30068 0 0 1-1.412386 0.036738z m-14.07079-24.047294c0.481681 6.616986 6.661888 11.801176 14.07079 11.801176l0.795998-0.02041c3.882019-0.195938 7.482378-1.865492 9.882617-4.580048 2.077758-2.351255 3.10235-5.310733 2.877838-8.327361-1.971625-26.855737-26.790425-77.836328-106.594296-78.571095h-0.004082c-4.028973 0-7.735465 1.477698-10.303067 4.057547a11.392972 11.392972 0 0 0-3.416667 8.106931c0.024492 6.861908 6.286341 12.499205 13.952411 12.564517 71.354049 0.644962 78.179219 49.204903 78.738458 54.968743z" fill="#6E6E96" p-id="1770"></path><path d="M223.749378 632.797752c-51.715357-32.529772-70.664184-2.975807-70.664184-2.975807h0.036738c-14.127938 9.033553-25.529075 25.129035-30.456096 45.731088-0.016328 0.048984-0.044902 0.085723-0.053067 0.130625l-0.016328 0.130625c-0.155117 0.657208-0.326563 1.294006-0.465352 1.955297a22.426725 22.426725 0 0 0-0.249005 7.576265c0.636798 37.444548 44.15542 56.270913 60.895864 46.604644 18.140583-10.462267 0.673537 7.229292 28.913086 19.569297 28.231385 12.319595 42.796101-24.692256 42.796101-24.692256 0.028574-0.542911-0.085723-1.106233-0.138789-1.645062 0.595978-1.314417 1.053166-2.649244 1.342991-3.996317 2.5227-11.837914 4.110614-21.581742 3.971824-30.182599 2.518618-10.539826 2.428813-34.093193-35.913783-58.2058z" fill="#FF7073" p-id="1771"></path><path d="M222.945216 760.161464c-0.004082 0-0.004082 0 0 0-4.498407 0-9.102948-1.016428-13.699324-3.020709-15.589309-6.817006-19.503984-15.540324-21.300082-21.046996-0.575568 0.306153-1.273596 0.689865-2.106332 1.171546-3.824871 2.208383-8.511052 3.326862-13.932001 3.326862-22.9778 0-55.356537-20.838811-56.140288-54.801379a28.484471 28.484471 0 0 1 0.375548-9.294804c0.102051-0.477599 0.22043-0.963361 0.338809-1.449124l0.334727-1.355237c5.020908-20.573479 16.622065-38.101756 31.966451-48.347675 2.804361-3.575867 12.580846-13.940165 31.660298-13.940165 13.797293 0 29.464161 5.453605 46.563824 16.213861 40.13053 25.235168 41.706197 50.666273 38.787538 64.055362 0.053067 9.841797-1.943051 20.610217-4.110614 30.798988a25.243332 25.243332 0 0 1-1.085822 3.637097c0.02041 0.371466 0.024492 0.710275 0.008164 1.045002l-0.053066 0.996018-0.363302 0.930705c-0.498009 1.269514-12.515533 31.080648-37.244528 31.080648z m-32.635905-37.501696c6.339407 0 8.041618 5.592394 8.858026 8.278376 1.249104 4.10245 2.959479 9.723418 14.981084 14.981084 3.037037 1.322581 5.996516 1.996117 8.796795 1.996118 14.172841 0 23.112507-17.303765 25.320891-22.108326l-0.163282-1.653226 0.669455-1.48178c0.432696-0.959279 0.751095-1.894066 0.938869-2.771705 2.837017-13.311531 3.947332-21.655219 3.828953-28.786542l-0.012246-0.767423 0.179609-0.751096c2.379829-9.976504 1.224612-29.954005-33.219636-51.617388-15.119874-9.50707-28.590604-14.33204-40.044807-14.332041-2.820689 0-5.347472 0.302071-7.588511 0.804162l-16.434291 10.52758c-13.319695 8.519216-23.455399 23.826864-27.798689 41.996021l-0.498008 2.06143a16.450619 16.450619 0 0 0-0.167364 5.531164l0.048984 0.677618c0.444942 26.304662 26.30058 43.098172 43.902334 43.098172 3.196237 0 5.894465-0.587814 7.808942-1.689964 5.057647-2.910494 7.927321-3.992235 10.592892-3.992234z" fill="#6E6E96" p-id="1772"></path><path d="M122.665836 675.561197s38.705898 62.365398 69.892679 9.800976c0 0 38.607929 45.020813 50.004983-39.681505 0 0 23.488055 5.3638 17.63441 42.436882-5.849562 37.073082-43.045106 97.197441-70.651938 37.073082 0.008164 0.008164-81.669363 15.960774-66.880134-49.629435z" fill="#6E6E96" opacity=".15" p-id="1773"></path><path d="M783.507198 740.224783s-36.142377-146.35336-107.365801-179.132136c37.305758-32.468542 55.658608-65.888198 55.658608-65.888198l-6.535345-5.657707-404.387236-39.906017s2.910494 41.99194 28.700819 84.481888c-39.877443 16.295501-95.617691 75.342202-95.617691 75.342201-15.462765 15.462765-11.397054 36.224018-11.397054 36.224018 18.818202 12.882916 17.63441 42.436882 17.63441 42.436882 4.367782 16.911889 27.912986-7.600757 27.912986-7.600757l20.491838 14.478993 62.883817-91.837722 3.400339-3.396257c6.894565-6.894565 12.421646-12.838014 16.666967-18.095681 24.394268 19.046796 57.075075 33.864599 101.030476 38.505878 52.062331 5.494425 95.421754-5.596476 130.298698-23.120671 0.016328 0.012246 71.83573 57.707791 75.881031 171.531378l33.578856-16.038333s10.474513 30.627542 22.198131 27.219039c0 0-29.415176 87.482187 48.168065 58.720137 0 0 76.872966 30.22342 76.872966-65.47183 0.004082 0-105.190074 64.802376-96.07488-32.795105z" fill="#6E6E96" opacity=".15" p-id="1774"></path><path d="M733.11034 248.686006s2.130825 22.15731-19.038632 32.460377l-8.139587-16.581244 27.178219-15.879133z" fill="#F5F5F5" p-id="1775"></path><path d="M713.136921 283.869104l-9.870372-20.112209 31.570493-18.446736 0.306153 3.175827c0.02041 0.236758 2.008363 23.692157-20.177521 34.493233l-1.828753 0.889885z m-4.535146-18.499803l6.38431 13.005378c13.425828-7.482378 15.785246-20.128536 16.111809-26.145463l-22.496119 13.140085z" fill="#6E6E96" p-id="1776"></path><path d="M826.731914 165.894082c-4.106532 11.646058-106.006482-57.871073-88.347579-37.816013 27.566012 31.301078 5.449523 60.299886-6.927221 87.812832-31.823579 70.688677-115.358434 103.524602-186.561448 73.33792-71.223424-30.198928-103.165382-111.98667-71.345885-182.691674C505.365196 35.84847 667.495638 3.779969 724.04413 55.164681c57.813924 52.531765 105.696247 102.173447 102.687784 110.729401z" fill="#FF7073" p-id="1777"></path><path d="M600.084839 306.569325c-19.887696 0-39.256973-3.935086-57.577166-11.703207-35.921947-15.230089-63.471631-43.436982-77.570995-79.424241-14.136103-36.089311-13.062526-75.656519 3.037037-111.419266 22.59817-50.209085 104.920659-80.216157 171.449738-80.216157 38.187479 0 69.704905 9.52748 88.743537 26.823081 29.476407 26.786343 55.932104 52.42155 74.497219 72.194949 30.68469 32.680808 31.566411 40.199924 29.847873 45.098372-0.449024 1.273596-2.379829 5.416866-8.42533 5.416866-9.274394 0-29.170254-10.862307-58.454804-27.435387-4.082039-2.310434-8.515134-4.816807-12.682897-7.131323 11.584828 24.169755 0.244922 46.886305-9.960176 67.337323-2.122661 4.253485-4.126942 8.26613-5.935285 12.29102-24.108525 53.556357-77.864902 88.163888-136.948341 88.16797h-0.02041z m39.334532-270.512671c-79.767132 0-144.136812 37.113902-160.28536 72.995029-14.73208 32.733874-15.728098 68.929318-2.800279 101.924443 12.886998 32.893074 38.085428 58.679317 70.949927 72.615399a134.486871 134.486871 0 0 0 52.797098 10.731682h0.012246c54.274796-0.004082 103.647063-31.778677 125.775799-80.946842 1.914476-4.249403 4.065711-8.560037 6.147551-12.731881 11.556254-23.149246 22.467545-45.016731 1.771605-68.521114-1.608324-1.824672-4.951514-5.62505-2.996217-9.94793 1.08174-2.392075 3.465651-3.877937 6.216946-3.877937 4.139188 0 10.711271 3.408503 34.644269 16.948627 13.67075 7.735465 34.705499 19.638692 46.020912 24.088115-10.029571-14.793311-43.951318-50.756078-97.748516-99.6385-16.7731-15.242335-45.363704-23.63909-80.505981-23.639091z" fill="#6E6E96" p-id="1778"></path><path d="M752.475535 441.701158c-19.508066 47.372068-58.981388 89.939575-108.859828 116.742246 51.005083-101.536649-18.605936 65.157513-171.2538 22.145063-36.844488-7.898746-53.850264-37.583337-76.321891-85.212573 23.814618 104.414486-33.035945 21.487856-63.083837-24.255478-28.651835-63.524698-27.190465-119.126157-6.306751-169.804676 39.032461-94.744135 143.622475-173.952028 283.873186-124.65732 109.121078 38.346678 180.997628 170.302685 141.952921 265.042738z" fill="#FFFFFF" p-id="1779"></path><path d="M523.097575 593.961229c-17.148648 0-34.778976-2.514536-52.397058-7.482379-29.300879-6.270013-46.690367-25.320891-62.855243-54.091104 0.081641 8.874354-1.669554 12.919655-3.72282 15.499504a10.482677 10.482677 0 0 1-8.32736 4.028973c-12.299185 0-31.354145-21.708286-67.961875-77.436288a6.049582 6.049582 0 0 1-0.46127-0.844983c-27.553766-61.091802-29.64377-118.219944-6.38431-174.654138 28.590604-69.39467 97.626055-143.55308 205.628654-143.553081 27.855837 0 56.768922 5.196436 85.935094 15.450519 59.054864 20.753088 110.56612 69.455901 137.801487 130.278289 22.381822 50.000901 25.149445 100.744733 7.784449 142.875462-20.104044 48.821192-60.789731 92.486767-111.623368 119.799693a6.123059 6.123059 0 0 1-8.372263-8.139587c0.971525-1.934887 1.90223-3.771804 2.783951-5.514835-23.316609 18.912089-63.292021 43.783955-117.828068 43.783955zM396.035934 489.248753a6.123059 6.123059 0 0 1 5.535246 3.510554c21.051077 44.616691 37.436384 74.415579 72.068406 81.836727 16.915971 4.755576 33.427821 7.114995 49.453907 7.114994 68.594591 0 112.970441-42.628738 127.551486-56.638297 4.894365-4.702509 6.372064-6.118977 9.351952-6.118977a6.408802 6.408802 0 0 1 5.359718 3.004381c2.110414 3.473816 1.522601 4.608623-5.674035 18.491639l-1.012345 1.951215c39.934592-25.965853 71.509167-62.667469 88.135313-103.034758 16.075071-38.995723 13.356433-86.302478-7.641578-133.20511-25.888294-57.818006-74.742142-104.071595-130.68241-123.730697-27.855837-9.788731-55.405521-14.756573-81.877547-14.756573-101.961181 0-167.224827 70.239652-194.309159 135.968652-21.847075 53.013446-19.87545 106.826972 6.029173 164.514353 37.803767 57.503689 51.576568 69.725315 56.572984 71.31731 0.857228-2.473716 2.236958-11.707289-4.841299-42.743034a6.123059 6.123059 0 0 1 5.980188-7.482379z" fill="#6E6E96" p-id="1780"></path><path d="M444.036636 327.918391c46.19644-5.755676 119.967057 3.094186 177.140101 73.87675 2.167563 2.726802 4.326962 5.188272 6.453704 7.52728 30.668362-19.344785 51.743932-50.605043 54.821789-87.510761 5.531163-66.504586-49.409005-126.065624-122.714269-133.049993-73.31751-6.972123-137.24633 41.281665-142.785657 107.782169-1.032756 12.413482 0.04082 24.577959 2.947233 36.215854 7.833434-3.384011 15.95261-4.841299 24.137099-4.841299z" fill="#FFBCAC" p-id="1781"></path><path d="M627.271221 411.959419l-1.147053-1.265432a146.810548 146.810548 0 0 1-6.547591-7.633414C569.808352 341.44627 509.500302 328.510287 467.675726 328.510287c-7.890582 0-15.756672 0.481681-23.386004 1.432796-8.547791 0.016328-16.397552 1.587913-23.581942 4.686181l-2.208383 0.951115-0.583732-2.330844a113.092902 113.092902 0 0 1-2.996217-36.881227c5.237257-62.896063 61.451022-110.32528 130.755887-110.325279 4.718838 0 9.515234 0.228594 14.2504 0.6817 74.2972 7.078256 130.172155 67.749608 124.555269 135.250213-3.012545 36.150541-23.341101 68.615001-55.764741 89.0701l-1.445042 0.914377zM467.675726 324.428247c34.970832 0 101.618289 9.882617 155.084842 76.081051 1.575667 1.979789 3.257467 3.959578 5.220928 6.155716 30.492835-19.810137 49.572287-50.707094 52.433797-85.032964 5.429112-65.284057-48.792617-123.979701-120.87327-130.849773a147.504495 147.504495 0 0 0-13.862606-0.661291c-67.165877 0-121.628447 45.820893-126.690175 106.58205a108.994535 108.994535 0 0 0 2.347172 33.256375c7.074174-2.718638 14.703506-4.090204 22.704304-4.090204a191.472141 191.472141 0 0 1 23.635008-1.44096z" fill="#6E6E96" p-id="1782"></path><path d="M627.634523 415.441398c-1.677718 0-3.330944-0.685783-4.526982-2.000199a150.51704 150.51704 0 0 1-6.719037-7.837516C567.644871 345.267059 508.610417 332.592326 467.675726 332.592326c-7.723219 0-15.421945 0.469435-22.879831 1.40014a5.927121 5.927121 0 0 1-0.759259 0.048984c-7.735465 0-15.042315 1.457288-21.712368 4.339208a6.123059 6.123059 0 0 1-8.368181-4.139188 117.350469 117.350469 0 0 1-3.106432-38.207889c5.412784-65.03097 63.373662-114.06851 134.82568-114.06851 4.849463 0 9.776484 0.236758 14.638194 0.698029 76.509665 7.290522 134.037847 69.937581 128.237268 139.650651-3.12276 37.440466-24.137099 71.039732-57.654725 92.184696a6.090403 6.090403 0 0 1-3.261549 0.942951zM467.675726 320.346208c35.697435 0 103.724622 10.078555 158.264751 77.599569 0.877638 1.102151 1.783851 2.200219 2.751294 3.335027 27.717048-19.157011 44.992239-48.041522 47.65781-79.983481 5.249503-63.063427-47.323083-119.787447-117.191269-126.445253a143.475522 143.475522 0 0 0-13.478895-0.64088c-65.022806 0-117.738263 44.212569-122.624464 102.838819a104.826772 104.826772 0 0 0 1.347073 27.56193 67.863905 67.863905 0 0 1 19.250898-2.812525 196.991059 196.991059 0 0 1 24.022802-1.453206z" fill="#6E6E96" p-id="1783"></path><path d="M520.309542 267.867509c-2.469634 7.931403-11.282757 12.323677-19.663184 9.792813-8.396755-2.526782-13.180905-11.005178-10.694943-18.948827 2.469634-7.927321 11.286839-12.315513 19.671348-9.788731 8.380427 2.530864 13.168659 11.00926 10.686779 18.944745zM623.430022 298.519543c-2.624751 8.368181-11.886899 12.984967-20.712268 10.319396-8.837615-2.66149-13.883016-11.592992-11.278675-19.948927 2.612505-8.355935 11.895063-12.984967 20.712268-10.319396 8.858026 2.66149 13.89118 11.592992 11.278675 19.948927zM514.745723 438.664121c-2.92274 0-5.923039-0.253086-8.964159-0.832736-14.703506-2.796197-27.027183-12.413482-36.636304-28.58244a6.123059 6.123059 0 0 1 10.52758-6.257767c7.719137 12.993131 17.246617 20.663284 28.321189 22.790026 19.21416 3.690164 37.628239-10.196934 37.816014-10.339806a6.135305 6.135305 0 0 1 8.584529 1.114397 6.118977 6.118977 0 0 1-1.093987 8.576365c-0.812326 0.632716-17.740543 13.531961-38.554862 13.531961z" fill="#6E6E96" p-id="1784"></path><path d="M575.208891 352.267756c-4.159598 17.340503-36.570991 24.565713-56.899548 19.769317-20.33672-4.796396-33.460477-22.728796-29.313125-40.069299 4.155516-17.340503 23.994228-27.512946 44.326866-22.720631 20.33672 4.771904 46.033159 25.684192 41.885807 43.020613z" fill="#FFBCAC" p-id="1785"></path><path d="M531.829058 379.609256c-5.3638 0-10.38879-0.542911-14.928019-1.616487-12.368579-2.914576-23.010456-10.34797-29.194746-20.381623-5.176026-8.400837-6.833334-18.018122-4.665771-27.072086 4.037137-16.842495 20.561233-28.60285 40.187679-28.60285 3.833035 0 7.70689 0.453106 11.499105 1.347073 16.250599 3.816707 33.938076 16.144466 42.061334 29.309043 4.445341 7.2048 5.955696 14.499404 4.375946 21.100062-4.269813 17.805856-28.566112 25.916868-49.335528 25.916868z m-8.60494-65.426928c-13.940165 0-25.565813 7.898746-28.276287 19.210078-1.404222 5.865891-0.273497 12.18897 3.183991 17.797692 4.490243 7.28644 12.352251 12.711471 21.581743 14.887198 3.567702 0.8409 7.755875 1.285842 12.115493 1.285842 18.4549 0 35.240246-7.412984 37.424137-16.524096 1.016428-4.249403-1.008264-8.772303-2.886002-11.821586-6.363899-10.311232-21.491938-20.773499-34.444249-23.814618a38.065018 38.065018 0 0 0-8.698826-1.02051z" fill="#6E6E96" p-id="1786"></path><path d="M605.064927 121.706005c99.034358 29.153926 166.363517 95.331949 150.366004 147.826976-16.009759 52.486863-80.305962-23.635008-179.352566-52.784852-99.042523-29.166172-195.333751-0.306153-179.336238-52.793015C408.135099 126.608535 458.654419 106.251404 522.538336 108.12506" fill="#FFFFFF" p-id="1787"></path><path d="M735.188098 293.661916c-15.589309 0-35.734173-11.266429-61.773503-25.831145-26.986363-15.095382-60.573383-33.880927-99.067015-45.208587-38.497714-11.335823-77.068904-13.789129-108.063829-15.756672-36.660796-2.330845-63.14915-4.012645-73.325675-18.707987-4.669853-6.743529-5.347472-15.242335-2.073676-25.986263 11.944047-39.146758 62.504188-62.140886 131.833546-60.165179a6.123059 6.123059 0 0 1 5.939367 6.298587c-0.093887 3.379929-2.963561 6.110813-6.298587 5.943449-62.659305-1.82059-109.655825 18.377341-119.762955 51.494928-2.110414 6.927221-1.971625 11.976704 0.428615 15.438273 6.800678 9.821387 33.32577 11.507269 64.034952 13.458484 31.603149 2.008363 70.933599 4.510654 110.74573 16.234271 39.808048 11.715453 74.064523 30.872464 101.585633 46.269917 26.749604 14.960674 49.841701 27.864001 61.075474 23.353347 3.996317-1.612406 6.976205-5.780168 9.102948-12.752291 4.30247-14.123856 2.004281-29.598868-6.833334-45.99642-20.998011-38.954902-74.411497-75.040131-139.405729-94.17265a6.123059 6.123059 0 1 1 3.457488-11.748109c68.010859 20.022403 124.23687 58.381328 146.724825 100.107935 10.298985 19.103945 12.984967 38.252791 7.764039 55.372864-3.277878 10.743928-8.588611 17.462965-16.246517 20.540823-3.057448 1.24094-6.331243 1.812426-9.841797 1.812425z" fill="#6E6E96" p-id="1788"></path><path d="M860.755712 161.665089c-1.816508 21.928716-22.014439 37.926228-45.073879 35.726009-23.075769-2.200219-40.289729-21.749106-38.460975-43.673739 1.828754-21.928716 22.014439-37.918064 45.077961-35.730091 23.079851 2.200219 40.297893 21.761352 38.456893 43.677821z" fill="#FFFFFF" p-id="1789"></path><path d="M819.914908 203.71826c-1.591995 0-3.196237-0.077559-4.816807-0.232677-26.353647-2.514536-46.082143-25.067804-43.979892-50.278479 2.106332-25.202511 24.912687-43.877842 51.76026-41.318403 26.369975 2.514536 46.098471 25.071886 43.979892 50.286643-1.963461 23.683993-22.145064 41.542915-46.943453 41.542916z m-1.832836-79.807953c-18.373259 0-33.317606 13.033952-34.758565 30.317307-1.551175 18.561033 13.225808 35.191262 32.937976 37.073082 19.948927 1.918559 36.860816-11.723617 38.387498-30.137697 1.563421-18.565115-13.213562-35.199426-32.933894-37.077165a37.505778 37.505778 0 0 0-3.633015-0.175527z" fill="#6E6E96" p-id="1790"></path><path d="M738.380252 129.8211c-0.910295 0-1.828754-0.204102-2.70231-0.632716l-46.563823-22.928816a6.123059 6.123059 0 1 1 5.412784-10.984768l46.563824 22.928816a6.123059 6.123059 0 0 1-2.710475 11.617484z" fill="#6E6E96" p-id="1791"></path><path d="M450.200515 117.444356s-51.658209 51.658209 0 51.658209c51.662291 0 192.415092 5.102549 258.748233 71.43569 0 0 70.672349 19.238652-76.244332-109.439477 0 0 122.726515 40.873461 122.726515 138.430121 0 0 7.261948 39.101856-105.337027-21.475609-112.603058-60.581547-285.248833-22.39815-249.947356-92.515342l50.053967-38.093592z" fill="#6E6E96" opacity=".1" p-id="1792"></path><path d="M784.486888 134.433804L691.820511 75.21974s-56.3648-13.033952-28.178318 28.178319-48.772207 21.353148-48.772207 21.353148 126.735078 50.474417 126.735078 77.007674c0 0 30.313225-47.351657-3.212565-73.680812l38.836523 25.631126 7.257866-19.275391z" fill="#6E6E96" opacity=".15" p-id="1793"></path><path d="M779.800707 146.871779s19.161093 36.309741 37.322086 18.148747c18.152829-18.152829 5.18419-47.033258 5.18419-47.033258s38.501796 19.752989 38.501796 38.497713-69.341604 78.366993-81.008072-9.613202z" fill="#6E6E96" opacity=".1" p-id="1794"></path><path d="M413.119269 193.325387s19.544805 37.215953 170.049598 65.267729c72.264344 13.47073 152.456008 47.25777 146.390098 110.321197-8.315114 86.478005-87.976114 157.366702-77.771015 108.382229s-134.707301 144.9124-195.937892 63.271611-85.722828-84.812533-85.722828-57.148552c0 27.668063-77.889394-72.280672-49.147755-166.763557 0 0-53.172646 149.790437 79.628343 224.916291v-43.861514s49.453908 182.014056 257.470555 28.757968l-14.47083 31.970533s186.80637-111.905029 93.405226-270.492261c0 0.004082-131.915186-94.621674-323.8935-94.621674z" fill="#6E6E96" opacity=".15" p-id="1795"></path><path d="M308.602732 695.00395s-49.364103 25.867884-20.789827 43.555361 344.703737 139.238365 451.747057 36.738355l14.989249 4.482079-9.364199 26.6598s-63.12874 64.01046-213.30697 36.158705c-150.17823-27.839509-284.297718-103.545012-284.297718-103.545012l12.625748-50.927524 27.912986-7.600757 20.483674 14.478993z" fill="#6E6E96" opacity=".15" p-id="1796"></path><path d="M505.336622 621.168021s-93.201124 123.261262 24.247314 148.904635c0 0-39.028379-4.306552-32.227701-58.728302 6.796596-54.425832 34.301377-90.098774 34.301377-90.098774l-26.32099-0.077559z" fill="#6E6E96" opacity=".15" p-id="1797"></path><path d="M490.392275 327.787766s-23.128835 122.591808 100.005884 42.763445l-15.197433-18.283455s-2.245122-16.687377-11.907309-26.353646c0 0-3.073776 29.745821-29.745821 29.745821S490.392275 327.787766 490.392275 327.787766z" fill="#6E6E96" opacity=".15" p-id="1798"></path><path d="M479.174831 835.77308s48.274198 39.432501 24.59837 63.100166c-4.359618 4.359618 11.797094 4.024891 11.797094 4.02489 7.641578-16.038333 62.724618-29.717247 82.436786-29.717247 28.129334 3.224811 34.542218 10.650041 33.982978 18.091599-0.555157 7.433394-8.115094 14.883116-36.077064 11.690961 0 0 66.202515 5.465851 84.510462 49.111016 0 0 12.16856-16.511849 6.086321-40.861214 0 0 35.346379-62.451121 40.791819-86.943358 0.012246 0.004082-93.874661 46.947535-248.126766 11.503187z" fill="#6E6E96" opacity=".15" p-id="1799"></path><path d="M411.645653 870.347954s52.952215 9.817305 42.163385 20.602053c-10.784748 10.78883-57.899647 16.128138-57.899647 16.128138s84.334935-16.907807 111.255984 46.073979c0.008164 0 48.723223-59.86719-95.519722-82.80417z" fill="#6E6E96" opacity=".15" p-id="1800"></path><path d="M432.161983 905.453493s43.302274 18.144665 21.651137 53.523701-127.845393 12.135903-111.545809-15.707688c0 0-32.893074 55.617787 44.771808 55.617787 77.656718 0 120.13442 3.628933 120.13442-30.386701s-34.072783-56.70361-75.011556-63.047099z" fill="#6E6E96" opacity=".25" p-id="1801"></path><path d="M611.771718 904.090092s43.306356 18.144665 21.659301 53.523701c-21.655219 35.379036-127.849475 12.135903-111.545809-15.707688 0 0-32.897156 55.617787 44.771808 55.617787s120.13442 3.628933 120.13442-30.386701-34.080947-56.70361-75.01972-63.047099z" fill="#6E6E96" opacity=".25" p-id="1802"></path></svg>